<svg width="345" height="56" viewBox="0 0 345 56" fill="none" xmlns="http://www.w3.org/2000/svg">
<path d="M6.624 34C6.24 34 5.958 33.802 5.778 33.406L0.504 21.346C0.336 20.938 0.318 20.602 0.45 20.338C0.582 20.074 0.834 19.942 1.206 19.942C1.626 19.942 1.914 20.128 2.07 20.5L6.696 31.606H6.498L11.214 20.5C11.31 20.284 11.418 20.14 11.538 20.068C11.67 19.984 11.844 19.942 12.06 19.942C12.42 19.942 12.666 20.074 12.798 20.338C12.942 20.59 12.942 20.872 12.798 21.184L7.47 33.406C7.386 33.598 7.272 33.748 7.128 33.856C6.996 33.952 6.828 34 6.624 34ZM17.0092 34.072C16.1332 34.072 15.3472 33.856 14.6512 33.424C13.9552 32.98 13.4032 32.386 12.9952 31.642C12.5992 30.886 12.4012 30.034 12.4012 29.086C12.4012 28.138 12.6172 27.286 13.0492 26.53C13.4932 25.774 14.0872 25.18 14.8312 24.748C15.5872 24.304 16.4332 24.082 17.3692 24.082C18.3052 24.082 19.1452 24.304 19.8892 24.748C20.6332 25.18 21.2212 25.774 21.6532 26.53C22.0972 27.286 22.3192 28.138 22.3192 29.086H21.6172C21.6172 30.034 21.4132 30.886 21.0052 31.642C20.6092 32.386 20.0632 32.98 19.3672 33.424C18.6712 33.856 17.8852 34.072 17.0092 34.072ZM17.3692 32.452C17.9812 32.452 18.5272 32.308 19.0072 32.02C19.4872 31.72 19.8652 31.318 20.1412 30.814C20.4172 30.298 20.5552 29.722 20.5552 29.086C20.5552 28.438 20.4172 27.862 20.1412 27.358C19.8652 26.842 19.4872 26.44 19.0072 26.152C18.5272 25.852 17.9812 25.702 17.3692 25.702C16.7692 25.702 16.2232 25.852 15.7312 26.152C15.2512 26.44 14.8672 26.842 14.5792 27.358C14.3032 27.862 14.1652 28.438 14.1652 29.086C14.1652 29.722 14.3032 30.298 14.5792 30.814C14.8672 31.318 15.2512 31.72 15.7312 32.02C16.2232 32.308 16.7692 32.452 17.3692 32.452ZM21.4012 34.018C21.1372 34.018 20.9152 33.934 20.7352 33.766C20.5672 33.586 20.4832 33.364 20.4832 33.1V30.346L20.8252 28.438L22.3192 29.086V33.1C22.3192 33.364 22.2292 33.586 22.0492 33.766C21.8812 33.934 21.6652 34.018 21.4012 34.018ZM25.9696 30.418C25.7056 30.418 25.4836 30.334 25.3036 30.166C25.1356 29.986 25.0516 29.764 25.0516 29.5V20.86C25.0516 20.584 25.1356 20.362 25.3036 20.194C25.4836 20.026 25.7056 19.942 25.9696 19.942C26.2456 19.942 26.4676 20.026 26.6356 20.194C26.8036 20.362 26.8876 20.584 26.8876 20.86V29.5C26.8876 29.764 26.8036 29.986 26.6356 30.166C26.4676 30.334 26.2456 30.418 25.9696 30.418ZM33.3676 34.018C33.1036 34.018 32.8816 33.934 32.7016 33.766C32.5336 33.586 32.4496 33.364 32.4496 33.1V28.672C32.4496 27.988 32.3236 27.43 32.0716 26.998C31.8196 26.566 31.4776 26.248 31.0456 26.044C30.6256 25.828 30.1396 25.72 29.5876 25.72C29.0836 25.72 28.6276 25.822 28.2196 26.026C27.8116 26.23 27.4876 26.506 27.2476 26.854C27.0076 27.19 26.8876 27.58 26.8876 28.024H25.7536C25.7536 27.268 25.9336 26.596 26.2936 26.008C26.6656 25.408 27.1696 24.934 27.8056 24.586C28.4416 24.238 29.1556 24.064 29.9476 24.064C30.7756 24.064 31.5136 24.244 32.1616 24.604C32.8216 24.952 33.3376 25.468 33.7096 26.152C34.0936 26.836 34.2856 27.676 34.2856 28.672V33.1C34.2856 33.364 34.1956 33.586 34.0156 33.766C33.8476 33.934 33.6316 34.018 33.3676 34.018ZM25.9696 34.018C25.7056 34.018 25.4836 33.934 25.3036 33.766C25.1356 33.586 25.0516 33.364 25.0516 33.1V25.072C25.0516 24.796 25.1356 24.574 25.3036 24.406C25.4836 24.238 25.7056 24.154 25.9696 24.154C26.2456 24.154 26.4676 24.238 26.6356 24.406C26.8036 24.574 26.8876 24.796 26.8876 25.072V33.1C26.8876 33.364 26.8036 33.586 26.6356 33.766C26.4676 33.934 26.2456 34.018 25.9696 34.018ZM38.4368 34C38.1728 34 37.9508 33.916 37.7708 33.748C37.6028 33.568 37.5188 33.346 37.5188 33.082V25.072C37.5188 24.796 37.6028 24.574 37.7708 24.406C37.9508 24.238 38.1728 24.154 38.4368 24.154C38.7128 24.154 38.9348 24.238 39.1028 24.406C39.2708 24.574 39.3548 24.796 39.3548 25.072V33.082C39.3548 33.346 39.2708 33.568 39.1028 33.748C38.9348 33.916 38.7128 34 38.4368 34ZM38.4368 22.552C38.1128 22.552 37.8308 22.438 37.5908 22.21C37.3628 21.97 37.2488 21.688 37.2488 21.364C37.2488 21.04 37.3628 20.764 37.5908 20.536C37.8308 20.296 38.1128 20.176 38.4368 20.176C38.7608 20.176 39.0368 20.296 39.2648 20.536C39.5048 20.764 39.6248 21.04 39.6248 21.364C39.6248 21.688 39.5048 21.97 39.2648 22.21C39.0368 22.438 38.7608 22.552 38.4368 22.552ZM47.2344 34.072C46.2984 34.072 45.4524 33.856 44.6964 33.424C43.9524 32.98 43.3584 32.38 42.9144 31.624C42.4824 30.868 42.2664 30.016 42.2664 29.068C42.2664 28.12 42.4644 27.274 42.8604 26.53C43.2684 25.774 43.8204 25.18 44.5164 24.748C45.2124 24.304 45.9984 24.082 46.8744 24.082C47.5824 24.082 48.2364 24.232 48.8364 24.532C49.4364 24.82 49.9404 25.216 50.3484 25.72V20.86C50.3484 20.584 50.4324 20.362 50.6004 20.194C50.7804 20.026 51.0024 19.942 51.2664 19.942C51.5424 19.942 51.7644 20.026 51.9324 20.194C52.1004 20.362 52.1844 20.584 52.1844 20.86V29.068C52.1844 30.016 51.9624 30.868 51.5184 31.624C51.0864 32.38 50.4984 32.98 49.7544 33.424C49.0104 33.856 48.1704 34.072 47.2344 34.072ZM47.2344 32.452C47.8464 32.452 48.3924 32.308 48.8724 32.02C49.3524 31.72 49.7304 31.312 50.0064 30.796C50.2824 30.28 50.4204 29.704 50.4204 29.068C50.4204 28.42 50.2824 27.844 50.0064 27.34C49.7304 26.836 49.3524 26.44 48.8724 26.152C48.3924 25.852 47.8464 25.702 47.2344 25.702C46.6344 25.702 46.0884 25.852 45.5964 26.152C45.1164 26.44 44.7324 26.836 44.4444 27.34C44.1684 27.844 44.0304 28.42 44.0304 29.068C44.0304 29.704 44.1684 30.28 44.4444 30.796C44.7324 31.312 45.1164 31.72 45.5964 32.02C46.0884 32.308 46.6344 32.452 47.2344 32.452ZM61.7981 34C61.5341 34 61.3121 33.91 61.1321 33.73C60.9641 33.55 60.8801 33.328 60.8801 33.064V20.878C60.8801 20.602 60.9641 20.38 61.1321 20.212C61.3121 20.032 61.5341 19.942 61.7981 19.942C62.0861 19.942 62.3261 20.056 62.5181 20.284L70.3661 30.724V20.878C70.3661 20.602 70.4561 20.38 70.6361 20.212C70.8161 20.032 71.0381 19.942 71.3021 19.942C71.5781 19.942 71.8001 20.032 71.9681 20.212C72.1361 20.38 72.2201 20.602 72.2201 20.878V33.064C72.2201 33.328 72.1361 33.55 71.9681 33.73C71.8001 33.91 71.5781 34 71.3021 34C71.1821 34 71.0501 33.976 70.9061 33.928C70.7741 33.868 70.6661 33.784 70.5821 33.676L62.7341 23.236V33.064C62.7341 33.328 62.6441 33.55 62.4641 33.73C62.2961 33.91 62.0741 34 61.7981 34ZM79.7455 34.072C78.8695 34.072 78.0835 33.856 77.3875 33.424C76.6915 32.98 76.1395 32.386 75.7315 31.642C75.3355 30.886 75.1375 30.034 75.1375 29.086C75.1375 28.138 75.3535 27.286 75.7855 26.53C76.2295 25.774 76.8235 25.18 77.5675 24.748C78.3235 24.304 79.1695 24.082 80.1055 24.082C81.0415 24.082 81.8815 24.304 82.6255 24.748C83.3695 25.18 83.9575 25.774 84.3895 26.53C84.8335 27.286 85.0555 28.138 85.0555 29.086H84.3535C84.3535 30.034 84.1495 30.886 83.7415 31.642C83.3455 32.386 82.7995 32.98 82.1035 33.424C81.4075 33.856 80.6215 34.072 79.7455 34.072ZM80.1055 32.452C80.7175 32.452 81.2635 32.308 81.7435 32.02C82.2235 31.72 82.6015 31.318 82.8775 30.814C83.1535 30.298 83.2915 29.722 83.2915 29.086C83.2915 28.438 83.1535 27.862 82.8775 27.358C82.6015 26.842 82.2235 26.44 81.7435 26.152C81.2635 25.852 80.7175 25.702 80.1055 25.702C79.5055 25.702 78.9595 25.852 78.4675 26.152C77.9875 26.44 77.6035 26.842 77.3155 27.358C77.0395 27.862 76.9015 28.438 76.9015 29.086C76.9015 29.722 77.0395 30.298 77.3155 30.814C77.6035 31.318 77.9875 31.72 78.4675 32.02C78.9595 32.308 79.5055 32.452 80.1055 32.452ZM84.1375 34.018C83.8735 34.018 83.6515 33.934 83.4715 33.766C83.3035 33.586 83.2195 33.364 83.2195 33.1V30.346L83.5615 28.438L85.0555 29.086V33.1C85.0555 33.364 84.9655 33.586 84.7855 33.766C84.6175 33.934 84.4015 34.018 84.1375 34.018ZM90.573 33.982C90.201 33.982 89.913 33.784 89.709 33.388L85.893 25.342C85.797 25.138 85.785 24.94 85.857 24.748C85.941 24.544 86.097 24.388 86.325 24.28C86.529 24.172 86.733 24.154 86.937 24.226C87.153 24.298 87.315 24.436 87.423 24.64L90.987 32.326H90.123L93.651 24.64C93.759 24.436 93.921 24.298 94.137 24.226C94.365 24.154 94.593 24.172 94.821 24.28C95.037 24.376 95.181 24.526 95.253 24.73C95.325 24.934 95.313 25.138 95.217 25.342L91.401 33.388C91.221 33.784 90.945 33.982 90.573 33.982ZM100.857 34.072C99.9808 34.072 99.1948 33.856 98.4988 33.424C97.8028 32.98 97.2508 32.386 96.8428 31.642C96.4468 30.886 96.2488 30.034 96.2488 29.086C96.2488 28.138 96.4648 27.286 96.8968 26.53C97.3408 25.774 97.9348 25.18 98.6788 24.748C99.4348 24.304 100.281 24.082 101.217 24.082C102.153 24.082 102.993 24.304 103.737 24.748C104.481 25.18 105.069 25.774 105.501 26.53C105.945 27.286 106.167 28.138 106.167 29.086H105.465C105.465 30.034 105.261 30.886 104.853 31.642C104.457 32.386 103.911 32.98 103.215 33.424C102.519 33.856 101.733 34.072 100.857 34.072ZM101.217 32.452C101.829 32.452 102.375 32.308 102.855 32.02C103.335 31.72 103.713 31.318 103.989 30.814C104.265 30.298 104.403 29.722 104.403 29.086C104.403 28.438 104.265 27.862 103.989 27.358C103.713 26.842 103.335 26.44 102.855 26.152C102.375 25.852 101.829 25.702 101.217 25.702C100.617 25.702 100.071 25.852 99.5788 26.152C99.0988 26.44 98.7148 26.842 98.4268 27.358C98.1508 27.862 98.0128 28.438 98.0128 29.086C98.0128 29.722 98.1508 30.298 98.4268 30.814C98.7148 31.318 99.0988 31.72 99.5788 32.02C100.071 32.308 100.617 32.452 101.217 32.452ZM105.249 34.018C104.985 34.018 104.763 33.934 104.583 33.766C104.415 33.586 104.331 33.364 104.331 33.1V30.346L104.673 28.438L106.167 29.086V33.1C106.167 33.364 106.077 33.586 105.897 33.766C105.729 33.934 105.513 34.018 105.249 34.018ZM109.835 33.658L108.611 32.578L114.731 24.496L115.937 25.576L109.835 33.658ZM109.295 34C108.731 34 108.449 33.718 108.449 33.154C108.449 32.59 108.731 32.308 109.295 32.308H115.433C115.997 32.308 116.279 32.59 116.279 33.154C116.279 33.718 115.997 34 115.433 34H109.295ZM109.115 25.846C108.551 25.846 108.269 25.564 108.269 25C108.269 24.436 108.551 24.154 109.115 24.154H115.253C115.817 24.154 116.099 24.436 116.099 25C116.099 25.564 115.817 25.846 115.253 25.846H109.115ZM122.372 34.072C121.496 34.072 120.71 33.856 120.014 33.424C119.318 32.98 118.766 32.386 118.358 31.642C117.962 30.886 117.764 30.034 117.764 29.086C117.764 28.138 117.98 27.286 118.412 26.53C118.856 25.774 119.45 25.18 120.194 24.748C120.95 24.304 121.796 24.082 122.732 24.082C123.668 24.082 124.508 24.304 125.252 24.748C125.996 25.18 126.584 25.774 127.016 26.53C127.46 27.286 127.682 28.138 127.682 29.086H126.98C126.98 30.034 126.776 30.886 126.368 31.642C125.972 32.386 125.426 32.98 124.73 33.424C124.034 33.856 123.248 34.072 122.372 34.072ZM122.732 32.452C123.344 32.452 123.89 32.308 124.37 32.02C124.85 31.72 125.228 31.318 125.504 30.814C125.78 30.298 125.918 29.722 125.918 29.086C125.918 28.438 125.78 27.862 125.504 27.358C125.228 26.842 124.85 26.44 124.37 26.152C123.89 25.852 123.344 25.702 122.732 25.702C122.132 25.702 121.586 25.852 121.094 26.152C120.614 26.44 120.23 26.842 119.942 27.358C119.666 27.862 119.528 28.438 119.528 29.086C119.528 29.722 119.666 30.298 119.942 30.814C120.23 31.318 120.614 31.72 121.094 32.02C121.586 32.308 122.132 32.452 122.732 32.452ZM126.764 34.018C126.5 34.018 126.278 33.934 126.098 33.766C125.93 33.586 125.846 33.364 125.846 33.1V30.346L126.188 28.438L127.682 29.086V33.1C127.682 33.364 127.592 33.586 127.412 33.766C127.244 33.934 127.028 34.018 126.764 34.018ZM138.731 34.018C138.467 34.018 138.245 33.934 138.065 33.766C137.897 33.586 137.813 33.364 137.813 33.1V28.672C137.813 27.988 137.687 27.43 137.435 26.998C137.183 26.566 136.841 26.248 136.409 26.044C135.989 25.828 135.503 25.72 134.951 25.72C134.447 25.72 133.991 25.822 133.583 26.026C133.175 26.23 132.851 26.506 132.611 26.854C132.371 27.19 132.251 27.58 132.251 28.024H131.117C131.117 27.268 131.297 26.596 131.657 26.008C132.029 25.408 132.533 24.934 133.169 24.586C133.805 24.238 134.519 24.064 135.311 24.064C136.139 24.064 136.877 24.244 137.525 24.604C138.185 24.952 138.701 25.468 139.073 26.152C139.457 26.836 139.649 27.676 139.649 28.672V33.1C139.649 33.364 139.559 33.586 139.379 33.766C139.211 33.934 138.995 34.018 138.731 34.018ZM131.333 34.018C131.069 34.018 130.847 33.934 130.667 33.766C130.499 33.586 130.415 33.364 130.415 33.1V25.072C130.415 24.796 130.499 24.574 130.667 24.406C130.847 24.238 131.069 24.154 131.333 24.154C131.609 24.154 131.831 24.238 131.999 24.406C132.167 24.574 132.251 24.796 132.251 25.072V33.1C132.251 33.364 132.167 33.586 131.999 33.766C131.831 33.934 131.609 34.018 131.333 34.018Z" fill="#25282B"/>
<path d="M324 22.001H342M324 28.001H342M324 34.001H342" stroke="black" stroke-width="2" stroke-linecap="round" stroke-linejoin="round"/>
</svg>
